<?xml version="1.0" encoding="UTF-8" standalone="no"?>
<!DOCTYPE svg PUBLIC "-//W3C//DTD SVG 1.1//EN" "http://www.w3.org/Graphics/SVG/1.1/DTD/svg11.dtd">
<svg version="1.1" xmlns="http://www.w3.org/2000/svg" xmlns:xlink="http://www.w3.org/1999/xlink" preserveAspectRatio="xMidYMid meet" viewBox="0 0 512 512" width="512" height="512"><defs><path d="M24 0L0 0L0 24L24 24L24 0Z" id="a1xiQ8GOjT"></path><path d="M398.73 158.95L403.97 164.88L408.94 170.97L413.61 177.21L418.01 183.59L422.12 190.1L425.95 196.74L429.5 203.49L432.76 210.35L435.74 217.3L438.43 224.35L440.84 231.47L442.97 238.66L444.81 245.92L446.37 253.23L447.65 260.59L448.64 267.98L449.35 275.39L449.77 282.83L449.92 290.27L449.77 297.71L449.35 305.15L448.64 312.56L447.65 319.95L446.37 327.31L444.81 334.62L442.97 341.87L440.84 349.07L438.43 356.19L435.74 363.24L432.76 370.19L429.5 377.05L425.95 383.8L422.12 390.44L418.01 396.95L413.61 403.33L408.94 409.57L403.97 415.66L398.73 421.58L393.2 427.34L390.34 430.14L387.44 432.87L384.49 435.53L381.51 438.12L378.48 440.64L375.42 443.08L372.32 445.46L369.18 447.76L366 450L362.79 452.16L359.55 454.25L356.28 456.27L352.97 458.22L349.64 460.1L346.27 461.91L342.88 463.65L339.46 465.31L336.01 466.91L332.54 468.43L329.05 469.88L325.54 471.27L322 472.58L318.44 473.82L314.87 474.99L311.28 476.09L307.67 477.12L304.04 478.07L300.4 478.96L296.75 479.77L293.08 480.52L289.41 481.19L285.72 481.8L282.02 482.33L278.32 482.79L274.61 483.18L270.9 483.5L267.18 483.75L263.45 483.92L259.73 484.03L256 484.06L252.27 484.03L248.55 483.92L244.82 483.75L241.1 483.5L237.39 483.18L233.68 482.79L229.98 482.33L226.28 481.8L222.59 481.19L218.92 480.52L215.25 479.77L211.6 478.96L207.96 478.07L204.33 477.12L200.72 476.09L197.13 474.99L193.56 473.82L190 472.58L186.46 471.27L182.95 469.88L179.46 468.43L175.99 466.91L172.54 465.31L169.12 463.65L165.73 461.91L162.36 460.1L159.03 458.22L155.72 456.27L152.45 454.25L149.21 452.16L146 450L142.82 447.76L139.68 445.46L136.58 443.08L133.52 440.64L130.49 438.12L127.51 435.53L124.56 432.87L121.66 430.14L118.8 427.34L113.27 421.58L108.03 415.66L103.06 409.57L98.39 403.33L93.99 396.95L89.88 390.44L86.05 383.8L82.5 377.05L79.24 370.19L76.26 363.24L73.57 356.19L71.16 349.07L69.03 341.87L67.19 334.62L65.63 327.31L64.35 319.95L63.36 312.56L62.65 305.15L62.23 297.71L62.08 290.27L62.23 282.83L62.65 275.39L63.36 267.98L64.35 260.59L65.63 253.23L67.19 245.92L69.03 238.66L71.16 231.47L73.57 224.35L76.26 217.3L79.24 210.35L82.5 203.49L86.05 196.74L89.88 190.1L93.99 183.59L98.39 177.21L103.06 170.97L108.03 164.88L113.27 158.95L118.8 153.2L256 16L393.2 153.2L398.73 158.95ZM151.18 189.69L149.17 191.79L147.22 193.93L145.32 196.1L143.46 198.31L141.65 200.54L139.89 202.8L138.18 205.1L136.51 207.42L134.9 209.78L133.34 212.16L131.82 214.56L130.36 217L128.95 219.46L127.58 221.95L126.27 224.46L125.01 226.99L123.8 229.55L122.64 232.13L121.53 234.73L120.48 237.35L119.47 240L118.52 242.66L117.62 245.35L116.78 248.05L115.98 250.77L115.24 253.51L114.56 256.26L113.92 259.04L113.34 261.82L112.82 264.62L112.35 267.44L111.93 270.27L111.57 273.11L111.26 275.96L111.01 278.83L110.82 281.7L110.68 284.59L110.59 287.49L110.56 290.39L110.59 293.3L110.68 296.19L110.82 299.07L111.01 301.95L111.26 304.81L111.57 307.66L111.93 310.5L112.35 313.32L112.82 316.13L113.34 318.93L113.92 321.71L114.56 324.47L115.24 327.22L115.98 329.95L116.78 332.67L117.62 335.36L118.52 338.04L119.47 340.7L120.48 343.34L121.53 345.96L122.64 348.56L123.8 351.13L125.01 353.69L126.27 356.22L127.58 358.73L128.95 361.22L130.36 363.68L131.82 366.11L133.34 368.52L134.9 370.9L136.51 373.26L138.18 375.59L139.89 377.89L141.65 380.16L143.46 382.41L145.32 384.62L147.22 386.8L149.17 388.96L151.18 391.08L153.22 393.17L154.62 394.54L156.08 395.9L157.6 397.24L159.18 398.57L160.82 399.88L162.52 401.17L164.28 402.45L166.1 403.72L167.98 404.96L169.92 406.2L171.92 407.41L173.98 408.61L176.1 409.8L178.28 410.97L180.52 412.12L182.82 413.26L185.18 414.38L187.59 415.48L190.07 416.57L192.61 417.65L195.21 418.71L197.87 419.75L200.59 420.78L203.37 421.79L206.21 422.78L209.11 423.76L212.07 424.73L215.09 425.68L218.17 426.61L221.31 427.53L224.51 428.43L227.77 429.31L231.09 430.18L234.46 431.04L237.9 431.87L241.4 432.7L244.96 433.5L248.58 434.29L252.26 435.07L256 435.83L256 84.6L153.22 187.62L151.18 189.69Z" id="b35cNB3JjA"></path></defs><g><g><g><use xlink:href="#a1xiQ8GOjT" opacity="1" fill="#000000" fill-opacity="0"></use><g><use xlink:href="#a1xiQ8GOjT" opacity="1" fill-opacity="0" stroke="#000000" stroke-width="1" stroke-opacity="0"></use></g></g><g><use xlink:href="#b35cNB3JjA" opacity="1" fill="#000000" fill-opacity="1"></use><g><use xlink:href="#b35cNB3JjA" opacity="1" fill-opacity="0" stroke="#000000" stroke-width="1" stroke-opacity="0"></use></g></g></g></g></svg>